<svg width="120" height="42" viewBox="0 0 120 42" fill="none" xmlns="http://www.w3.org/2000/svg">
<g clip-path="url(#clip0_943_3262)">
<rect width="120" height="42" fill="white"/>
<path d="M15.828 31.36C14.124 31.36 12.66 31.024 11.436 30.352C10.212 29.656 9.264 28.72 8.592 27.544C7.944 26.344 7.62 24.976 7.62 23.44C7.62 21.976 7.992 20.644 8.736 19.444C9.48 18.244 10.476 17.284 11.724 16.564C12.972 15.844 14.364 15.484 15.9 15.484C17.868 15.484 19.5 16.06 20.796 17.212C22.092 18.364 22.968 19.948 23.424 21.964L11.148 26.284L10.356 24.304L20.436 20.632L19.716 21.1C19.428 20.308 18.948 19.624 18.276 19.048C17.604 18.448 16.728 18.148 15.648 18.148C14.736 18.148 13.92 18.376 13.2 18.832C12.48 19.264 11.916 19.864 11.508 20.632C11.1 21.4 10.896 22.276 10.896 23.26C10.896 24.292 11.112 25.204 11.544 25.996C11.976 26.764 12.564 27.376 13.308 27.832C14.076 28.264 14.94 28.48 15.9 28.48C16.548 28.48 17.172 28.36 17.772 28.12C18.396 27.88 18.972 27.568 19.5 27.184L21.048 29.668C20.304 30.172 19.464 30.58 18.528 30.892C17.616 31.204 16.716 31.36 15.828 31.36Z" fill="#4154F1"/>
<path d="M45.5831 27.616H54.5111V31H40.9391L45.5831 27.616ZM26.8271 18.004C26.8271 16.204 27.1631 14.512 27.8351 12.928C28.5311 11.32 29.4911 9.904 30.7151 8.68C31.9391 7.432 33.3431 6.46 34.9271 5.764C36.5351 5.044 38.2631 4.684 40.1111 4.684C41.9351 4.684 43.6391 5.044 45.2231 5.764C46.8311 6.46 48.2471 7.432 49.4711 8.68C50.7191 9.904 51.6911 11.32 52.3871 12.928C53.0831 14.512 53.4311 16.204 53.4311 18.004C53.4311 19.852 53.0831 21.58 52.3871 23.188C51.6911 24.796 50.7191 26.212 49.4711 27.436C48.2471 28.636 46.8311 29.584 45.2231 30.28C43.6391 30.952 41.9351 31.288 40.1111 31.288C38.2631 31.288 36.5351 30.952 34.9271 30.28C33.3431 29.608 31.9391 28.672 30.7151 27.472C29.4911 26.272 28.5311 24.868 27.8351 23.26C27.1631 21.652 26.8271 19.9 26.8271 18.004ZM30.4271 18.04C30.4271 19.408 30.6791 20.692 31.1831 21.892C31.6871 23.068 32.3831 24.112 33.2711 25.024C34.1591 25.936 35.1911 26.644 36.3671 27.148C37.5431 27.652 38.8151 27.904 40.1831 27.904C41.5271 27.904 42.7871 27.652 43.9631 27.148C45.1391 26.644 46.1591 25.936 47.0231 25.024C47.8871 24.112 48.5711 23.068 49.0751 21.892C49.5791 20.692 49.8311 19.396 49.8311 18.004C49.8311 16.66 49.5791 15.388 49.0751 14.188C48.5711 12.988 47.8751 11.944 46.9871 11.056C46.0991 10.144 45.0671 9.436 43.8911 8.932C42.7151 8.404 41.4551 8.14 40.1111 8.14C38.7431 8.14 37.4711 8.404 36.2951 8.932C35.1191 9.436 34.0871 10.144 33.1991 11.056C32.3111 11.968 31.6271 13.024 31.1471 14.224C30.6671 15.424 30.4271 16.696 30.4271 18.04ZM64.257 31.576C62.913 31.576 61.797 31.168 60.909 30.352C60.045 29.512 59.589 28.432 59.541 27.112V16.096H62.889V25.924C62.937 26.74 63.165 27.4 63.573 27.904C64.005 28.408 64.677 28.672 65.589 28.696C66.429 28.696 67.173 28.456 67.821 27.976C68.493 27.472 69.033 26.8 69.441 25.96C69.849 25.096 70.053 24.124 70.053 23.044V16.096H73.401V31H70.341L70.053 27.328L70.233 27.976C69.945 28.672 69.501 29.296 68.901 29.848C68.325 30.376 67.641 30.796 66.849 31.108C66.057 31.42 65.193 31.576 64.257 31.576ZM77.8973 23.404C77.8973 21.916 78.2453 20.572 78.9413 19.372C79.6613 18.172 80.6453 17.224 81.8933 16.528C83.1413 15.832 84.5573 15.484 86.1413 15.484C87.7733 15.484 89.2013 15.832 90.4253 16.528C91.6493 17.224 92.5973 18.172 93.2693 19.372C93.9413 20.572 94.2773 21.916 94.2773 23.404C94.2773 24.892 93.9413 26.248 93.2693 27.472C92.5973 28.672 91.6373 29.62 90.3893 30.316C89.1653 31.012 87.7373 31.36 86.1053 31.36C84.5213 31.36 83.1053 31.036 81.8573 30.388C80.6333 29.716 79.6613 28.792 78.9413 27.616C78.2453 26.416 77.8973 25.012 77.8973 23.404ZM81.2453 23.44C81.2453 24.4 81.4613 25.276 81.8933 26.068C82.3253 26.836 82.9013 27.448 83.6213 27.904C84.3653 28.36 85.1813 28.588 86.0693 28.588C87.0053 28.588 87.8333 28.36 88.5533 27.904C89.2973 27.448 89.8733 26.836 90.2813 26.068C90.6893 25.276 90.8933 24.4 90.8933 23.44C90.8933 22.48 90.6893 21.616 90.2813 20.848C89.8733 20.056 89.2973 19.432 88.5533 18.976C87.8333 18.496 87.0053 18.256 86.0693 18.256C85.1573 18.256 84.3293 18.496 83.5853 18.976C82.8653 19.456 82.2893 20.092 81.8573 20.884C81.4493 21.652 81.2453 22.504 81.2453 23.44ZM101.799 16.096L102.123 20.416L101.943 19.84C102.327 18.928 102.879 18.16 103.599 17.536C104.343 16.888 105.111 16.396 105.903 16.06C106.719 15.7 107.427 15.52 108.027 15.52L107.847 18.832C106.719 18.76 105.723 18.976 104.859 19.48C104.019 19.984 103.347 20.656 102.843 21.496C102.363 22.336 102.123 23.236 102.123 24.196V31H98.8105V16.096H101.799Z" fill="#012970"/>
<path d="M70.84 34.24L70.828 34.384L70.888 34.3L72.024 33.096H72.576L71.376 34.356L72.632 36H72.092L71.064 34.624L70.84 34.844V36H70.408V33.096H70.84V34.24ZM73.7954 36.04C73.6007 36.04 73.4341 36.0027 73.2954 35.928C73.1567 35.8507 73.0501 35.7453 72.9754 35.612C72.9007 35.476 72.8634 35.3213 72.8634 35.148C72.8634 34.9827 72.9047 34.8333 72.9874 34.7C73.0727 34.564 73.1861 34.456 73.3274 34.376C73.4714 34.296 73.6301 34.256 73.8034 34.256C74.0274 34.256 74.2127 34.3213 74.3594 34.452C74.5087 34.5827 74.6087 34.7653 74.6594 35L73.2954 35.472L73.1994 35.232L74.2914 34.84L74.2074 34.892C74.1754 34.8093 74.1247 34.7373 74.0554 34.676C73.9861 34.612 73.8914 34.58 73.7714 34.58C73.6754 34.58 73.5887 34.604 73.5114 34.652C73.4367 34.6973 73.3767 34.7613 73.3314 34.844C73.2887 34.924 73.2674 35.0187 73.2674 35.128C73.2674 35.24 73.2901 35.3387 73.3354 35.424C73.3834 35.5067 73.4474 35.572 73.5274 35.62C73.6101 35.668 73.7021 35.692 73.8034 35.692C73.8754 35.692 73.9434 35.6787 74.0074 35.652C74.0741 35.6253 74.1367 35.592 74.1954 35.552L74.3834 35.856C74.2954 35.912 74.1994 35.9573 74.0954 35.992C73.9941 36.024 73.8941 36.04 73.7954 36.04ZM75.9048 36.04C75.7101 36.04 75.5434 36.0027 75.4048 35.928C75.2661 35.8507 75.1594 35.7453 75.0848 35.612C75.0101 35.476 74.9728 35.3213 74.9728 35.148C74.9728 34.9827 75.0141 34.8333 75.0968 34.7C75.1821 34.564 75.2954 34.456 75.4368 34.376C75.5808 34.296 75.7394 34.256 75.9128 34.256C76.1368 34.256 76.3221 34.3213 76.4688 34.452C76.6181 34.5827 76.7181 34.7653 76.7688 35L75.4048 35.472L75.3088 35.232L76.4008 34.84L76.3168 34.892C76.2848 34.8093 76.2341 34.7373 76.1648 34.676C76.0954 34.612 76.0008 34.58 75.8808 34.58C75.7848 34.58 75.6981 34.604 75.6208 34.652C75.5461 34.6973 75.4861 34.7613 75.4408 34.844C75.3981 34.924 75.3768 35.0187 75.3768 35.128C75.3768 35.24 75.3994 35.3387 75.4448 35.424C75.4928 35.5067 75.5568 35.572 75.6368 35.62C75.7194 35.668 75.8114 35.692 75.9128 35.692C75.9848 35.692 76.0528 35.6787 76.1168 35.652C76.1834 35.6253 76.2461 35.592 76.3048 35.552L76.4928 35.856C76.4048 35.912 76.3088 35.9573 76.2048 35.992C76.1034 36.024 76.0034 36.04 75.9048 36.04ZM78.2302 36.04C78.1075 36.04 77.9902 36.0133 77.8782 35.96C77.7662 35.904 77.6768 35.8293 77.6102 35.736L77.6342 35.612V36.804H77.2262V34.296H77.5822L77.6382 34.704L77.5942 34.588C77.6768 34.492 77.7782 34.412 77.8982 34.348C78.0208 34.284 78.1568 34.252 78.3062 34.252C78.4635 34.252 78.6048 34.2893 78.7302 34.364C78.8555 34.4387 78.9542 34.544 79.0262 34.68C79.0982 34.816 79.1342 34.976 79.1342 35.16C79.1342 35.3413 79.0942 35.4987 79.0142 35.632C78.9368 35.7627 78.8302 35.864 78.6942 35.936C78.5582 36.0053 78.4035 36.04 78.2302 36.04ZM78.1502 35.716C78.2515 35.716 78.3448 35.692 78.4302 35.644C78.5182 35.596 78.5875 35.5307 78.6382 35.448C78.6915 35.3627 78.7182 35.268 78.7182 35.164C78.7182 35.0547 78.6928 34.9587 78.6422 34.876C78.5942 34.7907 78.5288 34.724 78.4462 34.676C78.3662 34.628 78.2768 34.604 78.1782 34.604C78.0848 34.604 78.0022 34.6213 77.9302 34.656C77.8582 34.688 77.7968 34.7333 77.7462 34.792C77.6955 34.8507 77.6595 34.9213 77.6382 35.004V35.312C77.6542 35.3893 77.6862 35.4587 77.7342 35.52C77.7822 35.5813 77.8422 35.6293 77.9142 35.664C77.9862 35.6987 78.0648 35.716 78.1502 35.716ZM81.7541 35.044L80.6781 33.096H81.2061L82.0421 34.68L81.9141 34.688L82.7421 33.096H83.2661L82.1821 35.044V36H81.7541V35.044ZM83.1173 35.144C83.1173 34.976 83.1573 34.8253 83.2373 34.692C83.3173 34.556 83.428 34.4493 83.5693 34.372C83.7106 34.2947 83.872 34.256 84.0533 34.256C84.2373 34.256 84.3986 34.2947 84.5373 34.372C84.676 34.4493 84.7826 34.556 84.8573 34.692C84.9346 34.8253 84.9733 34.976 84.9733 35.144C84.9733 35.312 84.9346 35.464 84.8573 35.6C84.7826 35.736 84.676 35.844 84.5373 35.924C84.3986 36.0013 84.236 36.04 84.0493 36.04C83.8706 36.04 83.7106 36.004 83.5693 35.932C83.4306 35.86 83.32 35.7573 83.2373 35.624C83.1573 35.488 83.1173 35.328 83.1173 35.144ZM83.5333 35.148C83.5333 35.252 83.556 35.3467 83.6013 35.432C83.6466 35.5147 83.708 35.5813 83.7853 35.632C83.8626 35.68 83.9493 35.704 84.0453 35.704C84.144 35.704 84.232 35.68 84.3093 35.632C84.3866 35.5813 84.4466 35.5147 84.4893 35.432C84.5346 35.3467 84.5573 35.252 84.5573 35.148C84.5573 35.044 84.5346 34.9507 84.4893 34.868C84.4466 34.7853 84.3866 34.7187 84.3093 34.668C84.232 34.6173 84.144 34.592 84.0453 34.592C83.9466 34.592 83.8586 34.6173 83.7813 34.668C83.704 34.7187 83.6426 34.7867 83.5973 34.872C83.5546 34.9547 83.5333 35.0467 83.5333 35.148ZM85.9965 36.068C85.8419 36.068 85.7152 36.0213 85.6165 35.928C85.5179 35.8347 85.4659 35.7147 85.4605 35.568V34.324H85.8725V35.42C85.8779 35.5053 85.9019 35.576 85.9445 35.632C85.9899 35.6853 86.0619 35.7133 86.1605 35.716C86.2512 35.716 86.3312 35.6893 86.4005 35.636C86.4725 35.58 86.5285 35.5053 86.5685 35.412C86.6112 35.316 86.6325 35.2067 86.6325 35.084V34.324H87.0445V36H86.6725L86.6405 35.612L86.6565 35.676C86.6219 35.7507 86.5725 35.8187 86.5085 35.88C86.4445 35.9387 86.3685 35.984 86.2805 36.016C86.1925 36.0507 86.0979 36.068 85.9965 36.068ZM88.9488 34.324H89.3608V36H88.9488V34.324ZM88.9248 33.724C88.9248 33.66 88.9501 33.6067 89.0008 33.564C89.0515 33.5213 89.1061 33.5 89.1648 33.5C89.2261 33.5 89.2808 33.5213 89.3288 33.564C89.3768 33.6067 89.4008 33.66 89.4008 33.724C89.4008 33.788 89.3768 33.8413 89.3288 33.884C89.2808 33.924 89.2261 33.944 89.1648 33.944C89.1061 33.944 89.0515 33.924 89.0008 33.884C88.9501 33.8413 88.9248 33.788 88.9248 33.724ZM90.3559 34.324L90.3919 34.708L90.3759 34.656C90.4319 34.536 90.5185 34.44 90.6359 34.368C90.7532 34.2933 90.8919 34.256 91.0519 34.256C91.2092 34.256 91.3385 34.3027 91.4399 34.396C91.5439 34.4893 91.5972 34.6107 91.5999 34.76V36H91.1879V34.904C91.1852 34.8187 91.1599 34.7493 91.1119 34.696C91.0639 34.64 90.9892 34.6107 90.8879 34.608C90.7972 34.608 90.7145 34.636 90.6399 34.692C90.5652 34.7453 90.5065 34.8187 90.4639 34.912C90.4212 35.0053 90.3999 35.1133 90.3999 35.236V36H89.9879V34.324H90.3559ZM94.0275 34.24L94.0155 34.384L94.0755 34.3L95.2115 33.096H95.7635L94.5635 34.356L95.8195 36H95.2795L94.2515 34.624L94.0275 34.844V36H93.5955V33.096H94.0275V34.24ZM96.6059 34.324L96.6419 34.708L96.6259 34.656C96.6819 34.536 96.7685 34.44 96.8859 34.368C97.0032 34.2933 97.1419 34.256 97.3019 34.256C97.4592 34.256 97.5885 34.3027 97.6899 34.396C97.7939 34.4893 97.8472 34.6107 97.8499 34.76V36H97.4379V34.904C97.4352 34.8187 97.4099 34.7493 97.3619 34.696C97.3139 34.64 97.2392 34.6107 97.1379 34.608C97.0472 34.608 96.9645 34.636 96.8899 34.692C96.8152 34.7453 96.7565 34.8187 96.7139 34.912C96.6712 35.0053 96.6499 35.1133 96.6499 35.236V36H96.2379V34.324H96.6059ZM98.3361 35.144C98.3361 34.976 98.3761 34.8253 98.4561 34.692C98.5361 34.556 98.6467 34.4493 98.7881 34.372C98.9294 34.2947 99.0907 34.256 99.2721 34.256C99.4561 34.256 99.6174 34.2947 99.7561 34.372C99.8947 34.4493 100.001 34.556 100.076 34.692C100.153 34.8253 100.192 34.976 100.192 35.144C100.192 35.312 100.153 35.464 100.076 35.6C100.001 35.736 99.8947 35.844 99.7561 35.924C99.6174 36.0013 99.4547 36.04 99.2681 36.04C99.0894 36.04 98.9294 36.004 98.7881 35.932C98.6494 35.86 98.5387 35.7573 98.4561 35.624C98.3761 35.488 98.3361 35.328 98.3361 35.144ZM98.7521 35.148C98.7521 35.252 98.7747 35.3467 98.8201 35.432C98.8654 35.5147 98.9267 35.5813 99.0041 35.632C99.0814 35.68 99.1681 35.704 99.2641 35.704C99.3627 35.704 99.4507 35.68 99.5281 35.632C99.6054 35.5813 99.6654 35.5147 99.7081 35.432C99.7534 35.3467 99.7761 35.252 99.7761 35.148C99.7761 35.044 99.7534 34.9507 99.7081 34.868C99.6654 34.7853 99.6054 34.7187 99.5281 34.668C99.4507 34.6173 99.3627 34.592 99.2641 34.592C99.1654 34.592 99.0774 34.6173 99.0001 34.668C98.9227 34.7187 98.8614 34.7867 98.8161 34.872C98.7734 34.9547 98.7521 35.0467 98.7521 35.148ZM101.729 34.324L102.197 35.4L102.117 35.404L102.545 34.324H102.949L102.181 36.1L101.645 34.96L101.153 36.1L100.381 34.324H100.785L101.281 35.452L101.137 35.428L101.497 34.596L101.373 34.324H101.729Z" fill="#555555"/>
</g>
<defs>
<clipPath id="clip0_943_3262">
<rect width="120" height="42" fill="white"/>
</clipPath>
</defs>
</svg>
