<svg width="252" height="75" viewBox="0 0 252 84" fill="none" xmlns="http://www.w3.org/2000/svg">
<rect width="252" height="84" rx="42" fill="white"/>
<path d="M21.8401 60.8C18.0534 60.8 14.8001 60.0533 12.0801 58.56C9.3601 57.0133 7.25343 54.9333 5.7601 52.32C4.3201 49.6533 3.6001 46.6133 3.6001 43.2C3.6001 39.9467 4.42677 36.9867 6.0801 34.32C7.73343 31.6533 9.94677 29.52 12.7201 27.92C15.4934 26.32 18.5868 25.52 22.0001 25.52C26.3734 25.52 30.0001 26.8 32.8801 29.36C35.7601 31.92 37.7068 35.44 38.7201 39.92L11.4401 49.52L9.6801 45.12L32.0801 36.96L30.4801 38C29.8401 36.24 28.7734 34.72 27.2801 33.44C25.7868 32.1067 23.8401 31.44 21.4401 31.44C19.4134 31.44 17.6001 31.9467 16.0001 32.96C14.4001 33.92 13.1468 35.2533 12.2401 36.96C11.3334 38.6667 10.8801 40.6133 10.8801 42.8C10.8801 45.0933 11.3601 47.12 12.3201 48.88C13.2801 50.5867 14.5868 51.9467 16.2401 52.96C17.9468 53.92 19.8668 54.4 22.0001 54.4C23.4401 54.4 24.8268 54.1333 26.1601 53.6C27.5468 53.0667 28.8268 52.3733 30.0001 51.52L33.4401 57.04C31.7868 58.16 29.9201 59.0667 27.8401 59.76C25.8134 60.4533 23.8134 60.8 21.8401 60.8Z" fill="#0066FF"/>
<path d="M87.9625 52.48H107.803V60H77.6425L87.9625 52.48ZM46.2825 31.12C46.2825 27.12 47.0292 23.36 48.5225 19.84C50.0692 16.2667 52.2025 13.12 54.9225 10.4C57.6425 7.62668 60.7625 5.46668 64.2825 3.92002C67.8558 2.32002 71.6958 1.52002 75.8025 1.52002C79.8558 1.52002 83.6425 2.32002 87.1625 3.92002C90.7358 5.46668 93.8825 7.62668 96.6025 10.4C99.3758 13.12 101.536 16.2667 103.083 19.84C104.629 23.36 105.403 27.12 105.403 31.12C105.403 35.2267 104.629 39.0667 103.083 42.64C101.536 46.2133 99.3758 49.36 96.6025 52.08C93.8825 54.7467 90.7358 56.8533 87.1625 58.4C83.6425 59.8933 79.8558 60.64 75.8025 60.64C71.6958 60.64 67.8558 59.8933 64.2825 58.4C60.7625 56.9067 57.6425 54.8267 54.9225 52.16C52.2025 49.4933 50.0692 46.3733 48.5225 42.8C47.0292 39.2267 46.2825 35.3333 46.2825 31.12ZM54.2825 31.2C54.2825 34.24 54.8425 37.0933 55.9625 39.76C57.0825 42.3733 58.6292 44.6933 60.6025 46.72C62.5758 48.7467 64.8692 50.32 67.4825 51.44C70.0958 52.56 72.9225 53.12 75.9625 53.12C78.9492 53.12 81.7492 52.56 84.3625 51.44C86.9758 50.32 89.2425 48.7467 91.1625 46.72C93.0825 44.6933 94.6025 42.3733 95.7225 39.76C96.8425 37.0933 97.4025 34.2133 97.4025 31.12C97.4025 28.1333 96.8425 25.3067 95.7225 22.64C94.6025 19.9733 93.0558 17.6533 91.0825 15.68C89.1092 13.6533 86.8158 12.08 84.2025 10.96C81.5892 9.78668 78.7892 9.20002 75.8025 9.20002C72.7625 9.20002 69.9358 9.78668 67.3225 10.96C64.7092 12.08 62.4158 13.6533 60.4425 15.68C58.4692 17.7067 56.9492 20.0533 55.8825 22.72C54.8158 25.3867 54.2825 28.2133 54.2825 31.2ZM129.46 61.28C126.473 61.28 123.993 60.3733 122.02 58.56C120.1 56.6933 119.087 54.2933 118.98 51.36V26.88H126.42V48.72C126.527 50.5333 127.033 52 127.94 53.12C128.9 54.24 130.393 54.8267 132.42 54.88C134.287 54.88 135.94 54.3467 137.38 53.28C138.873 52.16 140.073 50.6667 140.98 48.8C141.887 46.88 142.34 44.72 142.34 42.32V26.88H149.78V60H142.98L142.34 51.84L142.74 53.28C142.1 54.8267 141.113 56.2133 139.78 57.44C138.5 58.6133 136.98 59.5467 135.22 60.24C133.46 60.9333 131.54 61.28 129.46 61.28ZM159.772 43.12C159.772 39.8133 160.545 36.8267 162.092 34.16C163.692 31.4933 165.879 29.3867 168.652 27.84C171.425 26.2933 174.572 25.52 178.092 25.52C181.719 25.52 184.892 26.2933 187.612 27.84C190.332 29.3867 192.439 31.4933 193.932 34.16C195.425 36.8267 196.172 39.8133 196.172 43.12C196.172 46.4267 195.425 49.44 193.932 52.16C192.439 54.8267 190.305 56.9333 187.532 58.48C184.812 60.0267 181.639 60.8 178.012 60.8C174.492 60.8 171.345 60.08 168.572 58.64C165.852 57.1467 163.692 55.0933 162.092 52.48C160.545 49.8133 159.772 46.6933 159.772 43.12ZM167.212 43.2C167.212 45.3333 167.692 47.28 168.652 49.04C169.612 50.7467 170.892 52.1067 172.492 53.12C174.145 54.1333 175.959 54.64 177.932 54.64C180.012 54.64 181.852 54.1333 183.452 53.12C185.105 52.1067 186.385 50.7467 187.292 49.04C188.199 47.28 188.652 45.3333 188.652 43.2C188.652 41.0667 188.199 39.1467 187.292 37.44C186.385 35.68 185.105 34.2933 183.452 33.28C181.852 32.2133 180.012 31.68 177.932 31.68C175.905 31.68 174.065 32.2133 172.412 33.28C170.812 34.3467 169.532 35.76 168.572 37.52C167.665 39.2267 167.212 41.12 167.212 43.2ZM212.886 26.88L213.606 36.48L213.206 35.2C214.059 33.1733 215.286 31.4667 216.886 30.08C218.539 28.64 220.246 27.5467 222.006 26.8C223.819 26 225.392 25.6 226.726 25.6L226.326 32.96C223.819 32.8 221.606 33.28 219.686 34.4C217.819 35.52 216.326 37.0133 215.206 38.88C214.139 40.7467 213.606 42.7467 213.606 44.88V60H206.246V26.88H212.886Z" fill="#555555"/>
<path d="M101.94 72.8399L101.898 73.3439L102.108 73.0499L106.084 68.8359H108.016L103.816 73.2459L108.212 78.9999H106.322L102.724 74.1839L101.94 74.9539V78.9999H100.428V68.8359H101.94V72.8399ZM112.284 79.1399C111.603 79.1399 111.019 79.0092 110.534 78.7479C110.049 78.4772 109.675 78.1086 109.414 77.6419C109.153 77.1659 109.022 76.6246 109.022 76.0179C109.022 75.4392 109.167 74.9166 109.456 74.4499C109.755 73.9739 110.151 73.5959 110.646 73.3159C111.15 73.0359 111.705 72.8959 112.312 72.8959C113.096 72.8959 113.745 73.1246 114.258 73.5819C114.781 74.0392 115.131 74.6786 115.308 75.4999L110.534 77.1519L110.198 76.3119L114.02 74.9399L113.726 75.1219C113.614 74.8326 113.437 74.5806 113.194 74.3659C112.951 74.1419 112.62 74.0299 112.2 74.0299C111.864 74.0299 111.561 74.1139 111.29 74.2819C111.029 74.4406 110.819 74.6646 110.66 74.9539C110.511 75.2339 110.436 75.5652 110.436 75.9479C110.436 76.3399 110.515 76.6852 110.674 76.9839C110.842 77.2732 111.066 77.5019 111.346 77.6699C111.635 77.8379 111.957 77.9219 112.312 77.9219C112.564 77.9219 112.802 77.8752 113.026 77.7819C113.259 77.6886 113.479 77.5719 113.684 77.4319L114.342 78.4959C114.034 78.6919 113.698 78.8506 113.334 78.9719C112.979 79.0839 112.629 79.1399 112.284 79.1399ZM119.667 79.1399C118.985 79.1399 118.402 79.0092 117.917 78.7479C117.431 78.4772 117.058 78.1086 116.797 77.6419C116.535 77.1659 116.405 76.6246 116.405 76.0179C116.405 75.4392 116.549 74.9166 116.839 74.4499C117.137 73.9739 117.534 73.5959 118.029 73.3159C118.533 73.0359 119.088 72.8959 119.695 72.8959C120.479 72.8959 121.127 73.1246 121.641 73.5819C122.163 74.0392 122.513 74.6786 122.691 75.4999L117.917 77.1519L117.581 76.3119L121.403 74.9399L121.109 75.1219C120.997 74.8326 120.819 74.5806 120.577 74.3659C120.334 74.1419 120.003 74.0299 119.583 74.0299C119.247 74.0299 118.943 74.1139 118.673 74.2819C118.411 74.4406 118.201 74.6646 118.043 74.9539C117.893 75.2339 117.819 75.5652 117.819 75.9479C117.819 76.3399 117.898 76.6852 118.057 76.9839C118.225 77.2732 118.449 77.5019 118.729 77.6699C119.018 77.8379 119.34 77.9219 119.695 77.9219C119.947 77.9219 120.185 77.8752 120.409 77.7819C120.642 77.6886 120.861 77.5719 121.067 77.4319L121.725 78.4959C121.417 78.6919 121.081 78.8506 120.717 78.9719C120.362 79.0839 120.012 79.1399 119.667 79.1399ZM127.806 79.1399C127.376 79.1399 126.966 79.0466 126.574 78.8599C126.182 78.6639 125.869 78.4026 125.636 78.0759L125.72 77.6419V81.8139H124.292V73.0359H125.538L125.734 74.4639L125.58 74.0579C125.869 73.7219 126.224 73.4419 126.644 73.2179C127.073 72.9939 127.549 72.8819 128.072 72.8819C128.622 72.8819 129.117 73.0126 129.556 73.2739C129.994 73.5352 130.34 73.9039 130.592 74.3799C130.844 74.8559 130.97 75.4159 130.97 76.0599C130.97 76.6946 130.83 77.2452 130.55 77.7119C130.279 78.1692 129.906 78.5239 129.43 78.7759C128.954 79.0186 128.412 79.1399 127.806 79.1399ZM127.526 78.0059C127.88 78.0059 128.207 77.9219 128.506 77.7539C128.814 77.5859 129.056 77.3572 129.234 77.0679C129.42 76.7692 129.514 76.4379 129.514 76.0739C129.514 75.6912 129.425 75.3552 129.248 75.0659C129.08 74.7672 128.851 74.5339 128.562 74.3659C128.282 74.1979 127.969 74.1139 127.624 74.1139C127.297 74.1139 127.008 74.1746 126.756 74.2959C126.504 74.4079 126.289 74.5666 126.112 74.7719C125.934 74.9772 125.808 75.2246 125.734 75.5139V76.5919C125.79 76.8626 125.902 77.1052 126.07 77.3199C126.238 77.5346 126.448 77.7026 126.7 77.8239C126.952 77.9452 127.227 78.0059 127.526 78.0059ZM140.139 75.6539L136.373 68.8359H138.221L141.147 74.3799L140.699 74.4079L143.597 68.8359H145.431L141.637 75.6539V78.9999H140.139V75.6539ZM144.911 76.0039C144.911 75.4159 145.051 74.8886 145.331 74.4219C145.611 73.9459 145.998 73.5726 146.493 73.3019C146.987 73.0312 147.552 72.8959 148.187 72.8959C148.831 72.8959 149.395 73.0312 149.881 73.3019C150.366 73.5726 150.739 73.9459 151.001 74.4219C151.271 74.8886 151.407 75.4159 151.407 76.0039C151.407 76.5919 151.271 77.1239 151.001 77.5999C150.739 78.0759 150.366 78.4539 149.881 78.7339C149.395 79.0046 148.826 79.1399 148.173 79.1399C147.547 79.1399 146.987 79.0139 146.493 78.7619C146.007 78.5099 145.62 78.1506 145.331 77.6839C145.051 77.2079 144.911 76.6479 144.911 76.0039ZM146.367 76.0179C146.367 76.3819 146.446 76.7132 146.605 77.0119C146.763 77.3012 146.978 77.5346 147.249 77.7119C147.519 77.8799 147.823 77.9639 148.159 77.9639C148.504 77.9639 148.812 77.8799 149.083 77.7119C149.353 77.5346 149.563 77.3012 149.713 77.0119C149.871 76.7132 149.951 76.3819 149.951 76.0179C149.951 75.6539 149.871 75.3272 149.713 75.0379C149.563 74.7486 149.353 74.5152 149.083 74.3379C148.812 74.1606 148.504 74.0719 148.159 74.0719C147.813 74.0719 147.505 74.1606 147.235 74.3379C146.964 74.5152 146.749 74.7532 146.591 75.0519C146.441 75.3412 146.367 75.6632 146.367 76.0179ZM154.988 79.2379C154.447 79.2379 154.003 79.0746 153.658 78.7479C153.313 78.4212 153.131 78.0012 153.112 77.4879V73.1339H154.554V76.9699C154.573 77.2686 154.657 77.5159 154.806 77.7119C154.965 77.8986 155.217 77.9966 155.562 78.0059C155.879 78.0059 156.159 77.9126 156.402 77.7259C156.654 77.5299 156.85 77.2686 156.99 76.9419C157.139 76.6059 157.214 76.2232 157.214 75.7939V73.1339H158.656V78.9999H157.354L157.242 77.6419L157.298 77.8659C157.177 78.1272 157.004 78.3652 156.78 78.5799C156.556 78.7852 156.29 78.9439 155.982 79.0559C155.674 79.1772 155.343 79.2379 154.988 79.2379ZM165.321 73.1339H166.763V78.9999H165.321V73.1339ZM165.237 71.0339C165.237 70.8099 165.326 70.6232 165.503 70.4739C165.68 70.3246 165.872 70.2499 166.077 70.2499C166.292 70.2499 166.483 70.3246 166.651 70.4739C166.819 70.6232 166.903 70.8099 166.903 71.0339C166.903 71.2579 166.819 71.4446 166.651 71.5939C166.483 71.7339 166.292 71.8039 166.077 71.8039C165.872 71.8039 165.68 71.7339 165.503 71.5939C165.326 71.4446 165.237 71.2579 165.237 71.0339ZM170.246 73.1339L170.372 74.4779L170.316 74.2959C170.512 73.8759 170.815 73.5399 171.226 73.2879C171.636 73.0266 172.122 72.8959 172.682 72.8959C173.232 72.8959 173.685 73.0592 174.04 73.3859C174.404 73.7126 174.59 74.1372 174.6 74.6599V78.9999H173.158V75.1639C173.148 74.8652 173.06 74.6226 172.892 74.4359C172.724 74.2399 172.462 74.1372 172.108 74.1279C171.79 74.1279 171.501 74.2259 171.24 74.4219C170.978 74.6086 170.773 74.8652 170.624 75.1919C170.474 75.5186 170.4 75.8966 170.4 76.3259V78.9999H168.958V73.1339H170.246ZM183.096 72.8399L183.054 73.3439L183.264 73.0499L187.24 68.8359H189.172L184.972 73.2459L189.368 78.9999H187.478L183.88 74.1839L183.096 74.9539V78.9999H181.584V68.8359H183.096V72.8399ZM192.121 73.1339L192.247 74.4779L192.191 74.2959C192.387 73.8759 192.69 73.5399 193.101 73.2879C193.511 73.0266 193.997 72.8959 194.557 72.8959C195.107 72.8959 195.56 73.0592 195.915 73.3859C196.279 73.7126 196.465 74.1372 196.475 74.6599V78.9999H195.033V75.1639C195.023 74.8652 194.935 74.6226 194.767 74.4359C194.599 74.2399 194.337 74.1372 193.983 74.1279C193.665 74.1279 193.376 74.2259 193.115 74.4219C192.853 74.6086 192.648 74.8652 192.499 75.1919C192.349 75.5186 192.275 75.8966 192.275 76.3259V78.9999H190.833V73.1339H192.121ZM198.176 76.0039C198.176 75.4159 198.316 74.8886 198.596 74.4219C198.876 73.9459 199.264 73.5726 199.758 73.3019C200.253 73.0312 200.818 72.8959 201.452 72.8959C202.096 72.8959 202.661 73.0312 203.146 73.3019C203.632 73.5726 204.005 73.9459 204.266 74.4219C204.537 74.8886 204.672 75.4159 204.672 76.0039C204.672 76.5919 204.537 77.1239 204.266 77.5999C204.005 78.0759 203.632 78.4539 203.146 78.7339C202.661 79.0046 202.092 79.1399 201.438 79.1399C200.813 79.1399 200.253 79.0139 199.758 78.7619C199.273 78.5099 198.886 78.1506 198.596 77.6839C198.316 77.2079 198.176 76.6479 198.176 76.0039ZM199.632 76.0179C199.632 76.3819 199.712 76.7132 199.87 77.0119C200.029 77.3012 200.244 77.5346 200.514 77.7119C200.785 77.8799 201.088 77.9639 201.424 77.9639C201.77 77.9639 202.078 77.8799 202.348 77.7119C202.619 77.5346 202.829 77.3012 202.978 77.0119C203.137 76.7132 203.216 76.3819 203.216 76.0179C203.216 75.6539 203.137 75.3272 202.978 75.0379C202.829 74.7486 202.619 74.5152 202.348 74.3379C202.078 74.1606 201.77 74.0719 201.424 74.0719C201.079 74.0719 200.771 74.1606 200.5 74.3379C200.23 74.5152 200.015 74.7532 199.856 75.0519C199.707 75.3412 199.632 75.6632 199.632 76.0179ZM210.05 73.1339L211.688 76.8999L211.408 76.9139L212.906 73.1339H214.32L211.632 79.3499L209.756 75.3599L208.034 79.3499L205.332 73.1339H206.746L208.482 77.0819L207.978 76.9979L209.238 74.0859L208.804 73.1339H210.05Z" fill="#555555"/>
</svg>
